<svg width="181" height="31" viewBox="0 0 181 31" fill="none" xmlns="http://www.w3.org/2000/svg">
<path d="M30.5895 28.4091V1.47898H40.8615C43.0415 1.47898 44.8369 1.85087 46.2475 2.59466C47.6838 3.31279 48.7481 4.31306 49.4406 5.59544C50.1588 6.85218 50.5178 8.27563 50.5178 9.86579C50.5178 11.3534 50.1716 12.7255 49.4791 13.9823C48.8123 15.239 47.7607 16.2649 46.3244 17.06C44.9138 17.8294 43.0928 18.2141 40.8615 18.2141H35.9756V28.4091H30.5895ZM35.9756 13.8668H40.5152C42.1054 13.8668 43.2467 13.5078 43.9392 12.7896C44.6573 12.0715 45.0164 11.0969 45.0164 9.86579C45.0164 8.60905 44.6573 7.63444 43.9392 6.94195C43.2467 6.22381 42.1054 5.86474 40.5152 5.86474H35.9756V13.8668Z" fill="#141414"/>
<path d="M51.0952 28.4091V1.47898H68.9076V5.82627H56.4812V12.6357H67.7534V16.8292H56.4812V24.0618H68.9076V28.4091H51.0952Z" fill="#141414"/>
<path d="M69.8727 28.4091V1.47898H76.4898L87.3003 21.0995H87.4542V1.47898H92.8402V28.4091H86.2231L75.4126 8.82706H75.2587V28.4091H69.8727Z" fill="#141414"/>
<path d="M100.139 28.4091V1.47898H110.411C112.591 1.47898 114.386 1.85087 115.797 2.59466C117.233 3.31279 118.298 4.31306 118.99 5.59544C119.708 6.85218 120.067 8.27563 120.067 9.86579C120.067 11.3534 119.721 12.7255 119.029 13.9823C118.362 15.239 117.31 16.2649 115.874 17.06C114.463 17.8294 112.642 18.2141 110.411 18.2141H105.525V28.4091H100.139ZM105.525 13.8668H110.065C111.655 13.8668 112.796 13.5078 113.489 12.7896C114.207 12.0715 114.566 11.0969 114.566 9.86579C114.566 8.60905 114.207 7.63444 113.489 6.94195C112.796 6.22381 111.655 5.86474 110.065 5.86474H105.525V13.8668Z" fill="#141414"/>
<path d="M116.363 28.4091L124.827 1.47898H133.714L142.139 28.4091H136.445L129.367 4.59518H129.213L121.98 28.4091H116.363ZM120.672 20.7533L122.095 16.5599H135.945L137.33 20.7533H120.672Z" fill="#141414"/>
<path d="M151.63 28.8708C149.68 28.8708 147.936 28.5374 146.398 27.8705C144.859 27.2037 143.64 26.2291 142.743 24.9467C141.871 23.6643 141.409 22.1126 141.358 20.2916H147.09C147.116 21.061 147.308 21.7535 147.667 22.3691C148.026 22.9846 148.539 23.4719 149.206 23.831C149.873 24.1901 150.668 24.3696 151.591 24.3696C152.361 24.3696 153.027 24.2542 153.592 24.0233C154.182 23.7925 154.643 23.4463 154.977 22.9846C155.336 22.523 155.515 21.9459 155.515 21.2534C155.515 20.5096 155.323 19.8941 154.938 19.4068C154.579 18.8938 154.066 18.4578 153.399 18.0987C152.758 17.714 152.027 17.3806 151.206 17.0985C150.386 16.8163 149.527 16.5214 148.629 16.2136C146.449 15.4698 144.782 14.508 143.628 13.3282C142.499 12.1484 141.935 10.5968 141.935 8.67317C141.935 7.08301 142.32 5.72368 143.089 4.59518C143.884 3.44103 144.974 2.55619 146.359 1.94064C147.77 1.32509 149.36 1.01732 151.13 1.01732C152.976 1.01732 154.592 1.33792 155.977 1.97911C157.362 2.59466 158.452 3.49233 159.247 4.67212C160.068 5.85192 160.504 7.24972 160.555 8.86553H154.746C154.746 8.19869 154.579 7.62161 154.246 7.13431C153.938 6.62135 153.502 6.22381 152.938 5.94169C152.399 5.63392 151.758 5.48003 151.014 5.48003C150.373 5.48003 149.783 5.58262 149.244 5.7878C148.731 5.96734 148.321 6.27511 148.013 6.71112C147.706 7.12148 147.552 7.66009 147.552 8.32693C147.552 8.91683 147.693 9.42978 147.975 9.86579C148.283 10.3018 148.706 10.6737 149.244 10.9815C149.783 11.2892 150.424 11.597 151.168 11.9048C151.912 12.1869 152.745 12.4819 153.669 12.7896C155.028 13.2513 156.272 13.8027 157.4 14.4439C158.555 15.0595 159.465 15.8674 160.132 16.8676C160.824 17.8679 161.171 19.1759 161.171 20.7917C161.171 22.2537 160.799 23.6002 160.055 24.8313C159.337 26.0367 158.26 27.0113 156.823 27.7551C155.413 28.4989 153.681 28.8708 151.63 28.8708Z" fill="#141414"/>
<path d="M171.459 28.8708C169.51 28.8708 167.766 28.5374 166.227 27.8705C164.688 27.2037 163.47 26.2291 162.572 24.9467C161.7 23.6643 161.238 22.1126 161.187 20.2916H166.919C166.945 21.061 167.137 21.7535 167.496 22.3691C167.856 22.9846 168.369 23.4719 169.035 23.831C169.702 24.1901 170.497 24.3696 171.421 24.3696C172.19 24.3696 172.857 24.2542 173.421 24.0233C174.011 23.7925 174.473 23.4463 174.806 22.9846C175.165 22.523 175.345 21.9459 175.345 21.2534C175.345 20.5096 175.152 19.8941 174.768 19.4068C174.409 18.8938 173.896 18.4578 173.229 18.0987C172.588 17.714 171.857 17.3806 171.036 17.0985C170.215 16.8163 169.356 16.5214 168.458 16.2136C166.278 15.4698 164.611 14.508 163.457 13.3282C162.328 12.1484 161.764 10.5968 161.764 8.67317C161.764 7.08301 162.149 5.72368 162.918 4.59518C163.713 3.44103 164.803 2.55619 166.188 1.94064C167.599 1.32509 169.189 1.01732 170.959 1.01732C172.806 1.01732 174.421 1.33792 175.806 1.97911C177.191 2.59466 178.281 3.49233 179.076 4.67212C179.897 5.85192 180.333 7.24972 180.384 8.86553H174.575C174.575 8.19869 174.409 7.62161 174.075 7.13431C173.767 6.62135 173.331 6.22381 172.767 5.94169C172.229 5.63392 171.587 5.48003 170.844 5.48003C170.202 5.48003 169.612 5.58262 169.074 5.7878C168.561 5.96734 168.151 6.27511 167.843 6.71112C167.535 7.12148 167.381 7.66009 167.381 8.32693C167.381 8.91683 167.522 9.42978 167.804 9.86579C168.112 10.3018 168.535 10.6737 169.074 10.9815C169.612 11.2892 170.254 11.597 170.997 11.9048C171.741 12.1869 172.575 12.4819 173.498 12.7896C174.857 13.2513 176.101 13.8027 177.23 14.4439C178.384 15.0595 179.294 15.8674 179.961 16.8676C180.654 17.8679 181 19.1759 181 20.7917C181 22.2537 180.628 23.6002 179.884 24.8313C179.166 26.0367 178.089 27.0113 176.653 27.7551C175.242 28.4989 173.511 28.8708 171.459 28.8708Z" fill="#141414"/>
<path fill-rule="evenodd" clip-rule="evenodd" d="M15.0055 0C23.2928 0 30.011 6.7182 30.011 15.0055C30.011 23.2928 23.2928 30.011 15.0055 30.011C6.7182 30.011 0 23.2928 0 15.0055C0 6.7182 6.7182 0 15.0055 0ZM12.9454 9.53457C12.9454 9.71811 12.7235 9.80983 12.5938 9.68005L9.32409 6.41091L6.41091 9.32409L9.68005 12.5938C9.80983 12.7235 9.71811 12.9455 9.53457 12.9455H4.91089V17.0656H9.53457C9.71811 17.0656 9.80983 17.2875 9.68005 17.4173L6.41091 20.6869L9.32409 23.6001L12.5938 20.331C12.7235 20.2012 12.9454 20.2929 12.9454 20.4764V25.1001H17.0656V20.4764C17.0656 20.2929 17.2875 20.2012 17.4173 20.331L20.6869 23.6001L23.6001 20.6869L20.331 17.4173C20.2012 17.2875 20.2929 17.0656 20.4764 17.0656H25.1001V12.9455H20.4764C20.2929 12.9454 20.2012 12.7235 20.331 12.5938L23.6001 9.32409L20.6869 6.41091L17.4173 9.68005C17.2875 9.80983 17.0656 9.71811 17.0656 9.53457V4.91089H12.9454V9.53457Z" fill="#141414"/>
</svg>
